<svg xmlns="http://www.w3.org/2000/svg" width="920" height="470" viewBox="0 0 920 470" font-family="Helvetica, Arial, sans-serif"><rect width="920" height="470" fill="#ffffff"/><text x="460.0" y="30" text-anchor="middle" font-size="19" font-weight="700" fill="#1f2937">Builder Concentration: Value Share of Top-10</text><text x="460.0" y="50" text-anchor="middle" font-size="12.5" fill="#6b7280">Concentration of MEV value among top builders (real)</text><line x1="82" y1="396.0" x2="894" y2="396.0" stroke="#e5e7eb" stroke-width="1"/><text x="74" y="400.0" text-anchor="end" font-size="11" fill="#6b7280">0</text><line x1="82" y1="331.6" x2="894" y2="331.6" stroke="#e5e7eb" stroke-width="1"/><text x="74" y="335.6" text-anchor="end" font-size="11" fill="#6b7280">5.00</text><line x1="82" y1="267.2" x2="894" y2="267.2" stroke="#e5e7eb" stroke-width="1"/><text x="74" y="271.2" text-anchor="end" font-size="11" fill="#6b7280">10</text><line x1="82" y1="202.8" x2="894" y2="202.8" stroke="#e5e7eb" stroke-width="1"/><text x="74" y="206.8" text-anchor="end" font-size="11" fill="#6b7280">15</text><line x1="82" y1="138.4" x2="894" y2="138.4" stroke="#e5e7eb" stroke-width="1"/><text x="74" y="142.4" text-anchor="end" font-size="11" fill="#6b7280">20</text><line x1="82" y1="74.0" x2="894" y2="74.0" stroke="#e5e7eb" stroke-width="1"/><text x="74" y="78.0" text-anchor="end" font-size="11" fill="#6b7280">25</text><line x1="82.0" y1="396" x2="82.0" y2="401" stroke="#6b7280" stroke-width="1"/><text x="82.0" y="416" text-anchor="middle" font-size="10.5" fill="#6b7280">0x8b8edce58f</text><line x1="172.2" y1="396" x2="172.2" y2="401" stroke="#6b7280" stroke-width="1"/><text x="172.2" y="416" text-anchor="middle" font-size="10.5" fill="#6b7280">0x853b0078c7</text><line x1="262.4" y1="396" x2="262.4" y2="401" stroke="#6b7280" stroke-width="1"/><text x="262.4" y="416" text-anchor="middle" font-size="10.5" fill="#6b7280">0xb67eaa5efc</text><line x1="352.7" y1="396" x2="352.7" y2="401" stroke="#6b7280" stroke-width="1"/><text x="352.7" y="416" text-anchor="middle" font-size="10.5" fill="#6b7280">0x823e0146b1</text><line x1="442.9" y1="396" x2="442.9" y2="401" stroke="#6b7280" stroke-width="1"/><text x="442.9" y="416" text-anchor="middle" font-size="10.5" fill="#6b7280">0x88510a7879</text><line x1="533.1" y1="396" x2="533.1" y2="401" stroke="#6b7280" stroke-width="1"/><text x="533.1" y="416" text-anchor="middle" font-size="10.5" fill="#6b7280">0x8527d16cf0</text><line x1="623.3" y1="396" x2="623.3" y2="401" stroke="#6b7280" stroke-width="1"/><text x="623.3" y="416" text-anchor="middle" font-size="10.5" fill="#6b7280">0xb26f966642</text><line x1="713.6" y1="396" x2="713.6" y2="401" stroke="#6b7280" stroke-width="1"/><text x="713.6" y="416" text-anchor="middle" font-size="10.5" fill="#6b7280">0x8db2a99d06</text><line x1="803.8" y1="396" x2="803.8" y2="401" stroke="#6b7280" stroke-width="1"/><text x="803.8" y="416" text-anchor="middle" font-size="10.5" fill="#6b7280">0xb3d7ff5714</text><line x1="894.0" y1="396" x2="894.0" y2="401" stroke="#6b7280" stroke-width="1"/><text x="894.0" y="416" text-anchor="middle" font-size="10.5" fill="#6b7280">0x850b00e055</text><line x1="82" y1="74" x2="82" y2="396" stroke="#1f2937" stroke-width="1.2"/><line x1="82" y1="396" x2="894" y2="396" stroke="#1f2937" stroke-width="1.2"/><rect x="93.4" y="117.3" width="50.3" height="278.7" fill="#2563eb" rx="1.5"/><rect x="174.6" y="277.7" width="50.3" height="118.3" fill="#2563eb" rx="1.5"/><rect x="255.8" y="280.5" width="50.3" height="115.5" fill="#2563eb" rx="1.5"/><rect x="337.0" y="280.6" width="50.3" height="115.4" fill="#2563eb" rx="1.5"/><rect x="418.2" y="315.2" width="50.3" height="80.8" fill="#2563eb" rx="1.5"/><rect x="499.4" y="331.0" width="50.3" height="65.0" fill="#2563eb" rx="1.5"/><rect x="580.6" y="336.9" width="50.3" height="59.1" fill="#2563eb" rx="1.5"/><rect x="661.8" y="337.5" width="50.3" height="58.5" fill="#2563eb" rx="1.5"/><rect x="743.0" y="339.9" width="50.3" height="56.1" fill="#2563eb" rx="1.5"/><rect x="824.2" y="352.2" width="50.3" height="43.8" fill="#2563eb" rx="1.5"/><rect x="82" y="77" width="12" height="12" rx="2" fill="#2563eb"/><text x="99" y="87" font-size="11.5" fill="#1f2937">value share %</text><text x="16" y="235.0" font-size="11.5" fill="#6b7280" transform="rotate(-90 16 235.0)" text-anchor="middle">share of MEV value (%)</text><text x="460.0" y="460" text-anchor="middle" font-size="11.5" fill="#6b7280">Fig 2-2 · Builder value share · Source: relay bidtrace · Label = first 12 chars of builder_pubkey</text></svg>